# xmcd
#
# Track frame offsets:
#	150
#	11375
#	22360
#	41175
#	51697
#	73142
#	91135
#	105830
#	125952
#	139522
#	152497
#	165610
#	179112
#	190770
#	203007
#	215925
#	236787
#	253587
#	270325
#	282227
#
# Disc length: 3980
#
# Revision: 1
# Processed by: cddbd v1.5.1PL0 Copyright (c) Steve Scherf et al.
# Submitted via: CDex 1.50Beta7
# Normalized: r0:TDELIM( - )
#
DISCID=300f8a14
DTITLE=CMT/Hip-O Records - All Welcome
DYEAR=2002
DGENRE=Country
TTITLE0=Merle Haggard - From Graceland To the Promiced Land
TTITLE1=Conway Twitty - Hello Darlin
TTITLE2=DonWilliams - Good Ole Boys Like Me
TTITLE3=Malcom Holcombe - Only for You
TTITLE4=Jerry Jeff Walker - L.A. Freeway
TTITLE5=John Hiatt - Memphis in the Meantime
TTITLE6=Steve Wariner - Life's Highway
TTITLE7=Michael Martin Murphey - Geronimo's Cadillac
TTITLE8=Jimmy Martin - You're Gonna Change (Or I'm Gonna Leave)
TTITLE9=Bill Monroe and The Bluegrass Boys - The Walls of Time
TTITLE10=Tom T. Hall - I Like Beer
TTITLE11=Delbert McClinton - Two More Bottles of Wine
TTITLE12=Steve Earle - Guitar Town
TTITLE13=Charlie Rich - I Washed My Hands in Muddy Water
TTITLE14=Delbert McClinton - Pledgin my Love
TTITLE15=Tony Joe White - Across from Midnight
TTITLE16=Maria McKee - Show Me Heaven
TTITLE17=Malcom Holcombe - A Far Cry from Here
TTITLE18=Gene Watson - Fourteen Carat Mind
TTITLE19=Barbara Mandrell - I was Country When Country Wasn't Cool
EXTD=YEAR: 2002
EXTT0=
EXTT1=
EXTT2=
EXTT3=
EXTT4=
EXTT5=
EXTT6=
EXTT7=
EXTT8=
EXTT9=
EXTT10=
EXTT11=
EXTT12=
EXTT13=
EXTT14=
EXTT15=
EXTT16=
EXTT17=
EXTT18=
EXTT19=
PLAYORDER=
